<svg width="42" height="58" viewBox="0 0 42 58" fill="none" xmlns="http://www.w3.org/2000/svg">
<path d="M33.84 15.0651C33.5639 11.4321 32.0872 8.44727 29.41 6.11075C26.7328 3.77422 23.206 2.60436 18.8296 2.60114C15.9596 2.60114 13.3919 3.12007 11.1267 4.15793C8.8615 5.19578 7.07727 6.61895 5.77406 8.42742C4.46856 10.2348 3.81581 12.3068 3.81581 14.6433C3.80148 15.9201 4.04426 17.188 4.53132 18.3799C5.03095 19.5512 5.77742 20.6152 6.72579 21.508C7.82299 22.5282 9.07899 23.3854 10.4506 24.05C12.1406 24.876 13.9098 25.5498 15.7348 26.0624L22.1367 27.9299C24.3255 28.5421 26.45 29.3412 28.4839 30.3174C30.11 31.0938 31.6028 32.0956 32.9122 33.2893C34.0377 34.3289 34.925 35.5743 35.5193 36.9487C36.1064 38.3758 36.3969 39.8957 36.3751 41.4258C36.3751 44.1927 35.6208 46.6581 34.1122 48.8218C32.6036 50.9855 30.4975 52.6807 27.7941 53.9075C25.0895 55.1353 21.9513 55.7498 18.3794 55.7509C14.9388 55.7509 11.9307 55.1842 9.35505 54.0508C6.77943 52.9174 4.74244 51.3515 3.24408 49.3531C1.74458 47.3546 0.902967 45.0578 0.719238 42.4626H2.50118C2.64416 44.6408 3.43805 46.7368 4.79151 48.5095C6.13353 50.2578 7.9594 51.6246 10.2691 52.6099C12.5789 53.5952 15.288 54.0884 18.3965 54.0894C21.6341 54.0894 24.4716 53.5576 26.9091 52.494C29.3467 51.4304 31.241 49.9466 32.5921 48.0426C33.9444 46.1397 34.6212 43.9341 34.6223 41.4258C34.6223 39.5229 34.1807 37.8491 33.2974 36.4045C32.4141 34.9599 31.0248 33.6838 29.1293 32.5761C27.2349 31.4685 24.7609 30.4736 21.7071 29.5914L15.3051 27.7222C10.8717 26.4086 7.556 24.6698 5.3581 22.5061C3.1602 20.3424 2.06125 17.7215 2.06125 14.6433C2.06125 12.0309 2.78761 9.69066 4.24032 7.62246C5.69303 5.55426 7.68095 3.9261 10.2041 2.73798C12.7318 1.54342 15.6064 0.946682 18.8279 0.947755C22.0494 0.948829 24.8921 1.55362 27.3559 2.76213C29.7345 3.91573 31.7434 5.64449 33.1759 7.77057C34.6126 9.89888 35.4223 12.3299 35.6048 15.0635L33.84 15.0651Z" fill="black"/>
<path d="M38.6961 16.1484C38.4188 12.4993 36.9353 9.49894 34.2456 7.1474C31.5558 4.79585 28.0096 3.62168 23.607 3.6249C20.7232 3.6249 18.1431 4.14651 15.8664 5.18974C13.5898 6.23296 11.7959 7.66418 10.4847 9.48338C9.17231 11.3015 8.51614 13.3842 8.51614 15.7315C8.50167 17.0156 8.7462 18.2906 9.23678 19.489C9.73814 20.6665 10.4882 21.7361 11.4415 22.6332C12.5448 23.6591 13.8077 24.5212 15.1868 25.1897C16.8838 26.0198 18.6606 26.6968 20.4933 27.2118L26.9278 29.0905C29.1298 29.7049 31.2671 30.5084 33.3126 31.4909C34.9472 32.2706 36.4476 33.2773 37.7632 34.4773C38.8955 35.5221 39.788 36.7741 40.3856 38.156C40.9744 39.5934 41.2649 41.1235 41.2415 42.6637C41.2415 45.4478 40.4832 47.9265 38.9666 50.0999C37.45 52.2733 35.3371 53.9761 32.6279 55.2082C29.9097 56.4435 26.7566 57.0607 23.1688 57.0596C19.7087 57.0596 16.6846 56.4902 14.0965 55.3515C11.5083 54.2127 9.45988 52.6382 7.95125 50.628C6.44377 48.6188 5.59759 46.3113 5.41272 43.7053H7.18952C7.33258 45.8957 8.13066 48.0036 9.49183 49.786C10.8407 51.543 12.6763 52.9167 14.9986 53.9074C17.3208 54.898 20.0442 55.3939 23.1688 55.3949C26.4222 55.3949 29.2752 54.8583 31.7276 53.785C34.1799 52.7117 36.0845 51.2204 37.4414 49.3111C38.7971 47.3985 39.475 45.1806 39.475 42.6573C39.475 40.7447 39.031 39.0618 38.1432 37.6086C37.2554 36.1554 35.8592 34.8728 33.9546 33.7609C32.0499 32.6468 29.5622 31.6465 26.4913 30.76L20.0551 28.8812C15.6045 27.559 12.2712 25.8111 10.055 23.6378C7.83885 21.4644 6.73363 18.8289 6.73933 15.7315C6.73933 13.1062 7.46968 10.7536 8.93038 8.6736C10.3911 6.59359 12.3933 4.95416 14.9369 3.75531C17.4783 2.55646 20.3678 1.95703 23.6053 1.95703C26.8428 1.95703 29.7003 2.56558 32.1777 3.78267C34.5698 4.94222 36.59 6.68049 38.0302 8.81849C39.4738 10.9575 40.2881 13.4014 40.4729 16.15L38.6961 16.1484Z" fill="#4C06B2"/>
</svg>
