<?xml version="1.0" encoding="utf-8"?>
<!-- Generator: Adobe Illustrator 24.0.1, SVG Export Plug-In . SVG Version: 6.00 Build 0)  -->
<svg version="1.1" id="Layer_1" xmlns="http://www.w3.org/2000/svg" xmlns:xlink="http://www.w3.org/1999/xlink" x="0px" y="0px"
	 viewBox="0 0 700 700" style="enable-background:new 0 0 700 700;" xml:space="preserve">
<path d="M543.4,450.9c-10.1-10.2-26.5-10.6-36.7-0.5L376.7,580.5V45c0-14.3-11.7-26-26-26c-14.3,0-26,11.7-26,26v536.5l-131-131.2
	c-0.2-0.2-0.3-0.3-0.5-0.5c-10.2-10.1-26.8-9.7-36.7,0.5c-10.1,10.2-9.7,26.8,0.5,36.7l174.4,174.4c4.9,4.9,11.5,7.6,18.3,7.6h1.1
	c6.8,0,13.5-2.8,18.3-7.6l174.1-174.2C553.2,477.1,553.2,461,543.4,450.9L543.4,450.9z"/>
</svg>
